<?xml version="1.0"?>
<svg xmlns="http://www.w3.org/2000/svg" xmlns:xlink="http://www.w3.org/1999/xlink" version="1.1" viewBox="0 0 252 252" width="150px" height="150px"><g transform="translate(-6.3,-6.3) scale(1.05,1.05)"><g fill="none" fill-rule="nonzero" stroke="none" stroke-width="1" stroke-linecap="butt" stroke-linejoin="miter" stroke-miterlimit="10" stroke-dasharray="" stroke-dashoffset="0" font-family="none" font-weight="none" font-size="none" text-anchor="none" style="mix-blend-mode: normal"><path d="M0,252v-252h252v252z" fill="none"/><g fill="#72caaf"><g id="surface1"><path d="M126,242.55c-64.25508,0 -116.55,-52.29492 -116.55,-116.55c0,-64.25508 52.29492,-116.55 116.55,-116.55c64.25508,0 116.55,52.29492 116.55,116.55c0,64.25508 -52.29492,116.55 -116.55,116.55z"/><path d="M126,12.6c62.53242,0 113.4,50.86758 113.4,113.4c0,62.53242 -50.86758,113.4 -113.4,113.4c-62.53242,0 -113.4,-50.86758 -113.4,-113.4c0,-62.53242 50.86758,-113.4 113.4,-113.4M126,6.3c-66.10078,0 -119.7,53.59922 -119.7,119.7c0,66.10078 53.59922,119.7 119.7,119.7c66.10078,0 119.7,-53.59922 119.7,-119.7c0,-66.10078 -53.59922,-119.7 -119.7,-119.7z"/><path d="M189,113.4h-50.4v-50.4h-25.2v50.4h-50.4v25.2h50.4v50.4h25.2v-50.4h50.4z"/></g></g><g fill="#ffffff"><path d="M50.04714,190.80762v-11.38l20.32,-2.53v-98.55l-20.68,0.36v-11.11l38.48,-8.31v117.61l20.23,2.53v11.38zM210.02714,109.50762v31.17v0c0,16.8 -3.73333,29.67 -11.2,38.61v0v0c-7.46667,8.94667 -17.67667,13.42 -30.63,13.42v0v0c-12.88667,0 -23.09333,-4.48667 -30.62,-13.46v0v0c-7.52667,-8.97333 -11.29,-21.83 -11.29,-38.57v0v-31.17v0c0,-16.74 3.73333,-29.61333 11.2,-38.62v0v0c7.46667,-9 17.64333,-13.5 30.53,-13.5v0v0c12.95333,0 23.19333,4.5 30.72,13.5v0v0c7.52667,9.00667 11.29,21.88 11.29,38.62zM192.22714,144.28762v-38.57v0c0,-11.38667 -2.06,-19.95333 -6.18,-25.7v0v0c-4.12667,-5.75333 -10.13667,-8.63 -18.03,-8.63v0v0c-7.76667,0 -13.69667,2.87667 -17.79,8.63v0v0c-4.09333,5.74667 -6.14,14.31333 -6.14,25.7v0v38.57v0c0,11.38 2.07667,19.97667 6.23,25.79v0v0c4.15333,5.81333 10.11333,8.72 17.88,8.72v0v0c7.89333,0 13.87333,-2.89333 17.94,-8.68v0v0c4.06,-5.78 6.09,-14.39 6.09,-25.83z"/></g></g></g></svg>
