<?xml version="1.0"?>
<svg xmlns="http://www.w3.org/2000/svg" xmlns:xlink="http://www.w3.org/1999/xlink" version="1.1" viewBox="0 0 252 252" width="100px" height="100px"><g fill="none" fill-rule="nonzero" stroke="none" stroke-width="1" stroke-linecap="butt" stroke-linejoin="miter" stroke-miterlimit="10" stroke-dasharray="" stroke-dashoffset="0" font-family="none" font-weight="none" font-size="none" text-anchor="none" style="mix-blend-mode: normal"><path d="M0,252v-252h252v252z" fill="none"/><g><g id="surface1"><path d="M232.3125,122.0625c0,60.89282 -49.35718,110.25 -110.25,110.25c-60.89282,0 -110.25,-49.35718 -110.25,-110.25c0,-60.89282 49.35718,-110.25 110.25,-110.25c60.89282,0 110.25,49.35718 110.25,110.25z" fill="#85cbf8"/><path d="M122.0625,11.8125c-60.89282,0 -110.25,49.35718 -110.25,110.25c0,60.89282 49.35718,110.25 110.25,110.25c60.89282,0 110.25,-49.35718 110.25,-110.25c0,-60.89282 -49.35718,-110.25 -110.25,-110.25zM122.0625,208.6875c-38.94434,0 -73.10522,-25.97827 -83.50268,-63.52295c-10.38208,-37.5293 5.55249,-77.3811 38.95972,-97.40699c33.40723,-20.02588 76.07373,-15.28857 104.28223,11.58179l2.67627,2.63012c1.01513,1.06128 1.99951,2.13794 2.95313,3.22998c22.27148,25.60913 27.54712,61.8772 13.47363,92.77734c-14.07349,30.88477 -44.89673,50.71069 -78.84229,50.71069z" fill="#c2cde7"/><path d="M122.0625,208.6875c-47.83447,0 -86.625,-38.79053 -86.625,-86.625h-6.53686c-4.67578,-0.01538 -9.12085,2.04565 -12.12012,5.6294c-2.99927,3.58374 -4.2605,8.32104 -3.42993,12.91992c8.9978,53.00244 54.92505,91.79297 108.69653,91.79297c53.77148,0 99.68335,-38.79053 108.69653,-91.79297c0.81518,-4.59888 -0.43066,-9.3208 -3.42993,-12.90454c-2.98389,-3.58374 -7.41358,-5.64478 -12.08936,-5.64478h-6.53686c0,47.83447 -38.79053,86.625 -86.625,86.625z" fill="#acb7d0"/><path d="M122.0625,7.875c-63.06152,0 -114.1875,51.12598 -114.1875,114.1875c0,63.06152 51.12598,114.1875 114.1875,114.1875c63.06152,0 114.1875,-51.12598 114.1875,-114.1875c0,-63.06152 -51.12598,-114.1875 -114.1875,-114.1875zM122.0625,228.375c-58.70874,0 -106.3125,-47.60376 -106.3125,-106.3125c0,-58.70874 47.60376,-106.3125 106.3125,-106.3125c58.70874,0 106.3125,47.60376 106.3125,106.3125c0,58.70874 -47.60376,106.3125 -106.3125,106.3125z" fill="#8d6c9f"/><path d="M122.0625,196.875c-2.1687,0 -3.9375,1.7688 -3.9375,3.9375v7.875c0,2.1687 1.7688,3.9375 3.9375,3.9375c2.1687,0 3.9375,-1.7688 3.9375,-3.9375v-7.875c0,-2.1687 -1.7688,-3.9375 -3.9375,-3.9375z" fill="#8d6c9f"/><path d="M145.6875,197.18262c-0.61523,-2.01489 -2.73779,-3.19922 -4.78345,-2.64551c-2.06103,0.55371 -3.2915,2.63013 -2.81469,4.70654l2.04565,7.59814c0.58447,2.10718 2.75317,3.35303 4.86035,2.76855c2.10718,-0.56909 3.35303,-2.75317 2.78393,-4.86035z" fill="#8d6c9f"/><path d="M85.64063,187.10815c-0.90747,-0.52295 -1.98413,-0.66137 -2.99927,-0.3999c-1.01513,0.27685 -1.87646,0.95361 -2.39941,1.86108l-3.9375,6.81372c-0.76904,1.21509 -0.81518,2.76855 -0.10766,4.02978c0.70752,1.26123 2.04565,2.03027 3.49145,2.01489c1.4458,-0.01538 2.76855,-0.83056 3.42993,-2.10718l3.9375,-6.81372c0.53833,-0.90747 0.67676,-1.98413 0.41528,-2.99927c-0.26147,-0.99975 -0.92285,-1.87646 -1.83032,-2.39941z" fill="#8d6c9f"/><path d="M163.88306,188.56934c-0.67676,-1.27661 -1.99951,-2.0918 -3.44531,-2.10718c-1.4458,-0.03076 -2.78393,0.75366 -3.49146,2.01489c-0.69214,1.26123 -0.66138,2.79931 0.12305,4.02978l3.9375,6.81372c0.66138,1.27661 1.98413,2.0918 3.42993,2.10718c1.4458,0.01538 2.78393,-0.75366 3.49146,-2.01489c0.70752,-1.26123 0.66137,-2.81469 -0.10767,-4.02978z" fill="#8d6c9f"/><path d="M103.20557,194.39868c-2.10718,-0.55371 -4.24512,0.69214 -4.81421,2.78393l-2.04565,7.56738c-0.41528,1.3689 -0.06152,2.87622 0.95362,3.90674c0.99975,1.03051 2.4917,1.43042 3.87598,1.0459c1.38428,-0.38452 2.44555,-1.50733 2.76855,-2.90699l2.06103,-7.59814c0.53833,-2.0918 -0.70752,-4.24512 -2.79931,-4.79883z" fill="#8d6c9f"/><path d="M169.3125,118.125h-43.3125v-43.3125c0,-2.1687 -1.7688,-3.9375 -3.9375,-3.9375c-2.1687,0 -3.9375,1.7688 -3.9375,3.9375v43.3125h-43.3125c-2.1687,0 -3.9375,1.7688 -3.9375,3.9375c0,2.1687 1.7688,3.9375 3.9375,3.9375h43.3125v43.3125c0,2.1687 1.7688,3.9375 3.9375,3.9375c2.1687,0 3.9375,-1.7688 3.9375,-3.9375v-43.3125h43.3125c2.1687,0 3.9375,-1.7688 3.9375,-3.9375c0,-2.1687 -1.7688,-3.9375 -3.9375,-3.9375z" fill="#85cbf8"/><path d="M151.00928,44.57373c2.81469,1.06128 5.56787,2.26098 8.25952,3.6145c1.95337,0.98438 4.32202,0.19995 5.3064,-1.73804c0.969,-1.95337 0.18457,-4.32202 -1.75342,-5.3064c-2.95312,-1.47656 -5.96777,-2.78393 -9.05933,-3.9375c-1.33813,-0.58447 -2.8916,-0.38452 -4.02978,0.52295c-1.15357,0.90747 -1.70728,2.36865 -1.43042,3.79907c0.26147,1.4458 1.30737,2.61475 2.70703,3.04541z" fill="#8d6c9f"/><path d="M63.58447,63.58447c18.81079,-18.71851 45.41968,-27.31641 71.62866,-23.1482c2.1687,0.35376 4.21435,-1.13818 4.56811,-3.30688c0.35376,-2.1687 -1.13818,-4.21436 -3.30689,-4.56812c-38.82129,-6.30615 -77.28882,13.16602 -95.19214,48.20362c-17.88794,35.02222 -11.12036,77.59643 16.74975,105.35888c1.56885,1.33814 3.89136,1.24585 5.35254,-0.19995c1.46118,-1.46118 1.53809,-3.78369 0.19995,-5.35254c-32.31519,-32.2998 -32.31519,-84.68701 0,-116.98681z" fill="#8d6c9f"/><path d="M186.09302,58.03198c-2.59936,-2.59936 -5.35254,-5.04492 -8.22876,-7.32129c-1.72266,-1.13818 -4.02978,-0.76904 -5.29102,0.84595c-1.27661,1.63037 -1.07666,3.95288 0.44604,5.33716c2.63013,2.07642 5.13721,4.32202 7.52124,6.69067c32.28442,32.2998 32.28442,84.65625 0,116.95605c-1.12281,0.95361 -1.61499,2.46094 -1.27661,3.90674c0.35376,1.43042 1.47656,2.55322 2.90698,2.90698c1.4458,0.33838 2.95313,-0.13843 3.92212,-1.26123c35.34521,-35.37598 35.34521,-92.68506 0,-128.06104z" fill="#8d6c9f"/></g></g><g fill="#faefde"><path d="M96.005,71.875v96.11h-19.05v-73.43l-22.74,7.05v-15.49l39.75,-14.24zM191.785,110.635v17.67v0c0,13.26667 -2.74667,23.41667 -8.24,30.45v0v0c-5.49333,7.03333 -13.53667,10.55 -24.13,10.55v0v0c-10.46,0 -18.45667,-3.45 -23.99,-10.35v0v0c-5.54,-6.9 -8.37333,-16.78667 -8.5,-29.66v0v-17.67v0c0,-13.4 2.77667,-23.57333 8.33,-30.52v0v0c5.56,-6.94 13.57,-10.41 24.03,-10.41v0v0c10.46,0 18.46,3.43667 24,10.31v0v0c5.53333,6.88 8.36667,16.75667 8.5,29.63zM172.735,131.735v-22.81v0c0,-7.95333 -1.08667,-13.74333 -3.26,-17.37v0v0c-2.18,-3.62667 -5.57667,-5.44 -10.19,-5.44v0v0c-4.48,0 -7.78667,1.72333 -9.92,5.17v0v0c-2.13333,3.45333 -3.26333,8.85 -3.39,16.19v0v23.33v0c0,7.82667 1.06333,13.64 3.19,17.44v0v0c2.13333,3.8 5.55,5.7 10.25,5.7v0v0c4.66,0 8.02333,-1.82333 10.09,-5.47v0v0c2.06667,-3.64667 3.14333,-9.22667 3.23,-16.74z"/></g></g></svg>
