<?xml version="1.0"?>
<svg xmlns="http://www.w3.org/2000/svg" xmlns:xlink="http://www.w3.org/1999/xlink" version="1.1" viewBox="0 0 252 252" width="150px" height="150px"><g transform="translate(-6.3,-6.3) scale(1.05,1.05)"><g fill="none" fill-rule="nonzero" stroke="none" stroke-width="1" stroke-linecap="butt" stroke-linejoin="miter" stroke-miterlimit="10" stroke-dasharray="" stroke-dashoffset="0" font-family="none" font-weight="none" font-size="none" text-anchor="none" style="mix-blend-mode: normal"><path d="M0,252v-252h252v252z" fill="none"/><g fill="#72caaf"><g id="surface1"><path d="M126,242.55c-64.25508,0 -116.55,-52.29492 -116.55,-116.55c0,-64.25508 52.29492,-116.55 116.55,-116.55c64.25508,0 116.55,52.29492 116.55,116.55c0,64.25508 -52.29492,116.55 -116.55,116.55z"/><path d="M126,12.6c62.53242,0 113.4,50.86758 113.4,113.4c0,62.53242 -50.86758,113.4 -113.4,113.4c-62.53242,0 -113.4,-50.86758 -113.4,-113.4c0,-62.53242 50.86758,-113.4 113.4,-113.4M126,6.3c-66.10078,0 -119.7,53.59922 -119.7,119.7c0,66.10078 53.59922,119.7 119.7,119.7c66.10078,0 119.7,-53.59922 119.7,-119.7c0,-66.10078 -53.59922,-119.7 -119.7,-119.7z"/><path d="M189,113.4h-50.4v-50.4h-25.2v50.4h-50.4v25.2h50.4v50.4h25.2v-50.4h50.4z"/></g></g><g fill="#ffffff"><path d="M62.74214,190.80762v-11.38l20.32,-2.53v-98.55l-20.68,0.36v-11.11l38.48,-8.31v117.61l20.23,2.53v11.38zM138.98214,190.80762v-11.38l20.33,-2.53v-98.55l-20.69,0.36v-11.11l38.48,-8.31v117.61l20.23,2.53v11.38z"/></g></g></g></svg>
