<?xml version="1.0"?>
<svg xmlns="http://www.w3.org/2000/svg" xmlns:xlink="http://www.w3.org/1999/xlink" version="1.1" viewBox="0 0 252 252" width="150px" height="150px"><g transform="translate(-6.3,-6.3) scale(1.05,1.05)"><g fill="none" fill-rule="nonzero" stroke="none" stroke-width="1" stroke-linecap="butt" stroke-linejoin="miter" stroke-miterlimit="10" stroke-dasharray="" stroke-dashoffset="0" font-family="none" font-weight="none" font-size="none" text-anchor="none" style="mix-blend-mode: normal"><path d="M0,252v-252h252v252z" fill="none"/><g fill="#72caaf"><g id="surface1"><path d="M126,242.55c-64.25508,0 -116.55,-52.29492 -116.55,-116.55c0,-64.25508 52.29492,-116.55 116.55,-116.55c64.25508,0 116.55,52.29492 116.55,116.55c0,64.25508 -52.29492,116.55 -116.55,116.55z"/><path d="M126,12.6c62.53242,0 113.4,50.86758 113.4,113.4c0,62.53242 -50.86758,113.4 -113.4,113.4c-62.53242,0 -113.4,-50.86758 -113.4,-113.4c0,-62.53242 50.86758,-113.4 113.4,-113.4M126,6.3c-66.10078,0 -119.7,53.59922 -119.7,119.7c0,66.10078 53.59922,119.7 119.7,119.7c66.10078,0 119.7,-53.59922 119.7,-119.7c0,-66.10078 -53.59922,-119.7 -119.7,-119.7z"/><path d="M189,113.4h-50.4v-50.4h-25.2v50.4h-50.4v25.2h50.4v50.4h25.2v-50.4h50.4z"/></g></g><g fill="#ffffff"><path d="M166.16,93.60762v0v0c0,6.86667 -1.92667,12.87333 -5.78,18.02v0v0c-3.85333,5.15333 -9.06333,8.99333 -15.63,11.52v0v0c7.58667,2.65333 13.65333,6.81 18.2,12.47v0v0c4.54667,5.66 6.82,12.19333 6.82,19.6v0v0c0,12.16667 -3.95667,21.45667 -11.87,27.87v0v0c-7.92,6.41333 -18.20333,9.62 -30.85,9.62v0v0c-12.88667,0 -23.24667,-3.20667 -31.08,-9.62v0v0c-7.82667,-6.41333 -11.74,-15.70333 -11.74,-27.87v0v0c0,-7.40667 2.23,-13.94 6.69,-19.6v0v0c4.45333,-5.66 10.47333,-9.81667 18.06,-12.47v0v0c-6.56,-2.52667 -11.71,-6.36667 -15.45,-11.52v0v0c-3.73333,-5.14667 -5.6,-11.15333 -5.6,-18.02v0v0c0,-11.56 3.57,-20.48667 10.71,-26.78v0v0c7.13333,-6.29333 16.54333,-9.44 28.23,-9.44v0v0c11.56,0 21,3.14667 28.32,9.44v0v0c7.31333,6.29333 10.97,15.22 10.97,26.78zM152.07,154.85762v0v0c0,-7.22667 -2.38,-13.16 -7.14,-17.8v0v0c-4.75333,-4.63333 -10.77333,-6.95 -18.06,-6.95v0v0c-7.34667,0 -13.32333,2.30333 -17.93,6.91v0v0c-4.60667,4.60667 -6.91,10.55333 -6.91,17.84v0v0c0,7.46667 2.27333,13.32333 6.82,17.57v0v0c4.54667,4.24667 10.61333,6.37 18.2,6.37v0v0c7.40667,0 13.42667,-2.14 18.06,-6.42v0v0c4.64,-4.27333 6.96,-10.11333 6.96,-17.52zM148.37,93.96762v0v0c0,-6.5 -2.03333,-11.89 -6.1,-16.17v0v0c-4.06667,-4.27333 -9.2,-6.41 -15.4,-6.41v0v0c-6.32667,0 -11.43,2.06333 -15.31,6.19v0v0c-3.88667,4.12667 -5.83,9.59 -5.83,16.39v0v0c0,6.68667 1.95667,12.04667 5.87,16.08v0v0c3.91333,4.04 9.06333,6.06 15.45,6.06v0v0c6.26,0 11.37667,-2.02 15.35,-6.06v0v0c3.98,-4.03333 5.97,-9.39333 5.97,-16.08z"/></g></g></g></svg>
