<?xml version="1.0"?>
<svg xmlns="http://www.w3.org/2000/svg" xmlns:xlink="http://www.w3.org/1999/xlink" version="1.1" viewBox="0 0 252 252" width="100px" height="100px"><g fill="none" fill-rule="nonzero" stroke="none" stroke-width="1" stroke-linecap="butt" stroke-linejoin="miter" stroke-miterlimit="10" stroke-dasharray="" stroke-dashoffset="0" font-family="none" font-weight="none" font-size="none" text-anchor="none" style="mix-blend-mode: normal"><path d="M0,252v-252h252v252z" fill="none"/><g><g id="surface1"><path d="M232.3125,122.0625c0,60.89282 -49.35718,110.25 -110.25,110.25c-60.89282,0 -110.25,-49.35718 -110.25,-110.25c0,-60.89282 49.35718,-110.25 110.25,-110.25c60.89282,0 110.25,49.35718 110.25,110.25z" fill="#85cbf8"/><path d="M122.0625,11.8125c-60.89282,0 -110.25,49.35718 -110.25,110.25c0,60.89282 49.35718,110.25 110.25,110.25c60.89282,0 110.25,-49.35718 110.25,-110.25c0,-60.89282 -49.35718,-110.25 -110.25,-110.25zM122.0625,208.6875c-38.94434,0 -73.10522,-25.97827 -83.50268,-63.52295c-10.38208,-37.5293 5.55249,-77.3811 38.95972,-97.40699c33.40723,-20.02588 76.07373,-15.28857 104.28223,11.58179l2.67627,2.63012c1.01513,1.06128 1.99951,2.13794 2.95313,3.22998c22.27148,25.60913 27.54712,61.8772 13.47363,92.77734c-14.07349,30.88477 -44.89673,50.71069 -78.84229,50.71069z" fill="#c2cde7"/><path d="M122.0625,208.6875c-47.83447,0 -86.625,-38.79053 -86.625,-86.625h-6.53686c-4.67578,-0.01538 -9.12085,2.04565 -12.12012,5.6294c-2.99927,3.58374 -4.2605,8.32104 -3.42993,12.91992c8.9978,53.00244 54.92505,91.79297 108.69653,91.79297c53.77148,0 99.68335,-38.79053 108.69653,-91.79297c0.81518,-4.59888 -0.43066,-9.3208 -3.42993,-12.90454c-2.98389,-3.58374 -7.41358,-5.64478 -12.08936,-5.64478h-6.53686c0,47.83447 -38.79053,86.625 -86.625,86.625z" fill="#acb7d0"/><path d="M122.0625,7.875c-63.06152,0 -114.1875,51.12598 -114.1875,114.1875c0,63.06152 51.12598,114.1875 114.1875,114.1875c63.06152,0 114.1875,-51.12598 114.1875,-114.1875c0,-63.06152 -51.12598,-114.1875 -114.1875,-114.1875zM122.0625,228.375c-58.70874,0 -106.3125,-47.60376 -106.3125,-106.3125c0,-58.70874 47.60376,-106.3125 106.3125,-106.3125c58.70874,0 106.3125,47.60376 106.3125,106.3125c0,58.70874 -47.60376,106.3125 -106.3125,106.3125z" fill="#8d6c9f"/><path d="M122.0625,196.875c-2.1687,0 -3.9375,1.7688 -3.9375,3.9375v7.875c0,2.1687 1.7688,3.9375 3.9375,3.9375c2.1687,0 3.9375,-1.7688 3.9375,-3.9375v-7.875c0,-2.1687 -1.7688,-3.9375 -3.9375,-3.9375z" fill="#8d6c9f"/><path d="M145.6875,197.18262c-0.61523,-2.01489 -2.73779,-3.19922 -4.78345,-2.64551c-2.06103,0.55371 -3.2915,2.63013 -2.81469,4.70654l2.04565,7.59814c0.58447,2.10718 2.75317,3.35303 4.86035,2.76855c2.10718,-0.56909 3.35303,-2.75317 2.78393,-4.86035z" fill="#8d6c9f"/><path d="M85.64063,187.10815c-0.90747,-0.52295 -1.98413,-0.66137 -2.99927,-0.3999c-1.01513,0.27685 -1.87646,0.95361 -2.39941,1.86108l-3.9375,6.81372c-0.76904,1.21509 -0.81518,2.76855 -0.10766,4.02978c0.70752,1.26123 2.04565,2.03027 3.49145,2.01489c1.4458,-0.01538 2.76855,-0.83056 3.42993,-2.10718l3.9375,-6.81372c0.53833,-0.90747 0.67676,-1.98413 0.41528,-2.99927c-0.26147,-0.99975 -0.92285,-1.87646 -1.83032,-2.39941z" fill="#8d6c9f"/><path d="M163.88306,188.56934c-0.67676,-1.27661 -1.99951,-2.0918 -3.44531,-2.10718c-1.4458,-0.03076 -2.78393,0.75366 -3.49146,2.01489c-0.69214,1.26123 -0.66138,2.79931 0.12305,4.02978l3.9375,6.81372c0.66138,1.27661 1.98413,2.0918 3.42993,2.10718c1.4458,0.01538 2.78393,-0.75366 3.49146,-2.01489c0.70752,-1.26123 0.66137,-2.81469 -0.10767,-4.02978z" fill="#8d6c9f"/><path d="M103.20557,194.39868c-2.10718,-0.55371 -4.24512,0.69214 -4.81421,2.78393l-2.04565,7.56738c-0.41528,1.3689 -0.06152,2.87622 0.95362,3.90674c0.99975,1.03051 2.4917,1.43042 3.87598,1.0459c1.38428,-0.38452 2.44555,-1.50733 2.76855,-2.90699l2.06103,-7.59814c0.53833,-2.0918 -0.70752,-4.24512 -2.79931,-4.79883z" fill="#8d6c9f"/><path d="M169.3125,118.125h-43.3125v-43.3125c0,-2.1687 -1.7688,-3.9375 -3.9375,-3.9375c-2.1687,0 -3.9375,1.7688 -3.9375,3.9375v43.3125h-43.3125c-2.1687,0 -3.9375,1.7688 -3.9375,3.9375c0,2.1687 1.7688,3.9375 3.9375,3.9375h43.3125v43.3125c0,2.1687 1.7688,3.9375 3.9375,3.9375c2.1687,0 3.9375,-1.7688 3.9375,-3.9375v-43.3125h43.3125c2.1687,0 3.9375,-1.7688 3.9375,-3.9375c0,-2.1687 -1.7688,-3.9375 -3.9375,-3.9375z" fill="#85cbf8"/><path d="M151.00928,44.57373c2.81469,1.06128 5.56787,2.26098 8.25952,3.6145c1.95337,0.98438 4.32202,0.19995 5.3064,-1.73804c0.969,-1.95337 0.18457,-4.32202 -1.75342,-5.3064c-2.95312,-1.47656 -5.96777,-2.78393 -9.05933,-3.9375c-1.33813,-0.58447 -2.8916,-0.38452 -4.02978,0.52295c-1.15357,0.90747 -1.70728,2.36865 -1.43042,3.79907c0.26147,1.4458 1.30737,2.61475 2.70703,3.04541z" fill="#8d6c9f"/><path d="M63.58447,63.58447c18.81079,-18.71851 45.41968,-27.31641 71.62866,-23.1482c2.1687,0.35376 4.21435,-1.13818 4.56811,-3.30688c0.35376,-2.1687 -1.13818,-4.21436 -3.30689,-4.56812c-38.82129,-6.30615 -77.28882,13.16602 -95.19214,48.20362c-17.88794,35.02222 -11.12036,77.59643 16.74975,105.35888c1.56885,1.33814 3.89136,1.24585 5.35254,-0.19995c1.46118,-1.46118 1.53809,-3.78369 0.19995,-5.35254c-32.31519,-32.2998 -32.31519,-84.68701 0,-116.98681z" fill="#8d6c9f"/><path d="M186.09302,58.03198c-2.59936,-2.59936 -5.35254,-5.04492 -8.22876,-7.32129c-1.72266,-1.13818 -4.02978,-0.76904 -5.29102,0.84595c-1.27661,1.63037 -1.07666,3.95288 0.44604,5.33716c2.63013,2.07642 5.13721,4.32202 7.52124,6.69067c32.28442,32.2998 32.28442,84.65625 0,116.95605c-1.12281,0.95361 -1.61499,2.46094 -1.27661,3.90674c0.35376,1.43042 1.47656,2.55322 2.90698,2.90698c1.4458,0.33838 2.95313,-0.13843 3.92212,-1.26123c35.34521,-35.37598 35.34521,-92.68506 0,-128.06104z" fill="#8d6c9f"/></g></g><g fill="#faefde"><path d="M163.07,87.365v0v0c0,6.14 -1.53667,11.58667 -4.61,16.34v0v0c-3.07333,4.75333 -7.30333,8.54667 -12.69,11.38v0v0c6.14,2.96 11.00667,7.03333 14.6,12.22v0v0c3.59333,5.18 5.39,11.27667 5.39,18.29v0v0c0,11.24 -3.82333,20.12 -11.47,26.64v0v0c-7.65333,6.52 -18.05333,9.78 -31.2,9.78v0v0c-13.15333,0 -23.58333,-3.27333 -31.29,-9.82v0v0c-7.70667,-6.54667 -11.56,-15.41333 -11.56,-26.6v0v0c0,-7.01333 1.79667,-13.12667 5.39,-18.34v0v0c3.58667,-5.21333 8.42333,-9.27 14.51,-12.17v0v0c-5.38667,-2.83333 -9.60333,-6.62667 -12.65,-11.38v0v0c-3.04,-4.75333 -4.56,-10.2 -4.56,-16.34v0v0c0,-10.78 3.59333,-19.37 10.78,-25.77v0v0c7.18667,-6.40667 16.95,-9.61 29.29,-9.61v0v0c12.28,0 22.03,3.17333 29.25,9.52v0v0c7.21333,6.34667 10.82,14.96667 10.82,25.86zM140.56,143.775v0v0c0,-5.50667 -1.59667,-9.91 -4.79,-13.21v0v0c-3.18667,-3.30667 -7.47333,-4.96 -12.86,-4.96v0v0c-5.32667,0 -9.58333,1.63667 -12.77,4.91v0v0c-3.18667,3.27333 -4.78,7.69333 -4.78,13.26v0v0c0,5.38667 1.56333,9.73 4.69,13.03v0v0c3.12667,3.30667 7.47333,4.96 13.04,4.96v0v0c5.44667,0 9.72,-1.59333 12.82,-4.78v0v0c3.1,-3.18667 4.65,-7.59 4.65,-13.21zM137.95,88.585v0v0c0,-4.92667 -1.30333,-8.88333 -3.91,-11.87v0v0c-2.60667,-2.98 -6.28667,-4.47 -11.04,-4.47v0v0c-4.69333,0 -8.34333,1.44667 -10.95,4.34v0v0c-2.60667,2.9 -3.91,6.9 -3.91,12v0v0c0,5.04 1.30333,9.09333 3.91,12.16v0v0c2.60667,3.07333 6.28667,4.61 11.04,4.61v0v0c4.74667,0 8.41,-1.53667 10.99,-4.61v0v0c2.58,-3.06667 3.87,-7.12 3.87,-12.16z"/></g></g></svg>
