<?xml version="1.0"?>
<svg xmlns="http://www.w3.org/2000/svg" xmlns:xlink="http://www.w3.org/1999/xlink" version="1.1" viewBox="0 0 252 252" width="150px" height="150px"><g transform="translate(-6.3,-6.3) scale(1.05,1.05)"><g fill="none" fill-rule="nonzero" stroke="none" stroke-width="1" stroke-linecap="butt" stroke-linejoin="miter" stroke-miterlimit="10" stroke-dasharray="" stroke-dashoffset="0" font-family="none" font-weight="none" font-size="none" text-anchor="none" style="mix-blend-mode: normal"><path d="M0,252v-252h252v252z" fill="none"/><g fill="#72caaf"><g id="surface1"><path d="M126,242.55c-64.25508,0 -116.55,-52.29492 -116.55,-116.55c0,-64.25508 52.29492,-116.55 116.55,-116.55c64.25508,0 116.55,52.29492 116.55,116.55c0,64.25508 -52.29492,116.55 -116.55,116.55z"/><path d="M126,12.6c62.53242,0 113.4,50.86758 113.4,113.4c0,62.53242 -50.86758,113.4 -113.4,113.4c-62.53242,0 -113.4,-50.86758 -113.4,-113.4c0,-62.53242 50.86758,-113.4 113.4,-113.4M126,6.3c-66.10078,0 -119.7,53.59922 -119.7,119.7c0,66.10078 53.59922,119.7 119.7,119.7c66.10078,0 119.7,-53.59922 119.7,-119.7c0,-66.10078 -53.59922,-119.7 -119.7,-119.7z"/><path d="M189,113.4h-50.4v-50.4h-25.2v50.4h-50.4v25.2h50.4v50.4h25.2v-50.4h50.4z"/></g></g><g fill="#ffffff"><path d="M123.025,178.79762v0v0c8.55333,0 15.31333,-3.27 20.28,-9.81v0v0c4.96667,-6.53333 7.54,-17.05667 7.72,-31.57v0l-0.36,-0.45v0c-2.40667,4.03333 -5.78,7.13667 -10.12,9.31v0v0c-4.33333,2.16667 -9.21,3.25 -14.63,3.25v0v0c-12.82667,0 -22.94333,-3.96 -30.35,-11.88v0v0c-7.40667,-7.92 -11.11,-19.04667 -11.11,-33.38v0v0c0,-13.72667 3.96,-24.97333 11.88,-33.74v0v0c7.92,-8.76 17.54,-13.14 28.86,-13.14v0v0c13.72667,0 24.55,4.29 32.47,12.87v0v0c7.92,8.58 11.88,21.27333 11.88,38.08v0v23.75v0c0,20.54 -4.23,35.77667 -12.69,45.71v0v0c-8.46,9.94 -19.73667,14.91 -33.83,14.91v0v0c-4.58,0 -9.26333,-0.43667 -14.05,-1.31v0v0c-4.78667,-0.87333 -9.07667,-2.21333 -12.87,-4.02v0l2.71,-13.46v0c3.67333,1.74667 7.42333,2.99667 11.25,3.75v0v0c3.82,0.75333 8.14,1.13 12.96,1.13zM125.915,135.52762v0v0c6.56667,0 12.03333,-1.41667 16.4,-4.25v0v0c4.36,-2.82667 7.50667,-6.44 9.44,-10.84v0v-13.91v0c0,-11.62 -2.21333,-20.38333 -6.64,-26.29v0v0c-4.42667,-5.9 -10.88667,-8.85 -19.38,-8.85v0v0c-6.56667,0 -12.12333,3.07 -16.67,9.21v0v0c-4.54667,6.14667 -6.82,14.03667 -6.82,23.67v0v0c0,9.45333 2.11,17.02667 6.33,22.72v0v0c4.21333,5.69333 9.99333,8.54 17.34,8.54z"/></g></g></g></svg>
