<svg version="1" xmlns="http://www.w3.org/2000/svg" width="682.667" height="682.667" viewBox="0 0 512.000000 512.000000"><path d="M53.1 1.5C49.6 2.3 43 4.8 38.5 7 21.4 15.5 9.4 29.3 3.2 47.5l-2.7 8v401l2.7 8c6.2 18.3 19 32.8 36.1 40.9 15 7.1.1 6.7 220.2 6.4l198-.3 7.3-2.7c21.3-7.8 36.9-23.5 44-44.3l2.7-8v-401l-2.7-8c-6.2-18.3-19-32.8-36.1-40.9C457.8-.5 472.6 0 255.3.1 92.3.1 58.4.4 53.1 1.5zM105 266v135l-18.2-.2-18.3-.3-.3-134.8L68 131h37v135zm47 0v135h-37V131h37v135zm110-134c3.6.6 9.3 2.4 12.8 4.1 6.1 3 7 4 42.8 48 20 24.7 37.1 44.9 37.8 44.9.8 0 1.7-.7 2-1.6.3-.9.6-22.9.6-49V131h37v104.2c0 64.6-.4 104.9-1 105.8-.7 1.1-1.4 1.2-2.4.5-.8-.6-31-37-67.1-81-36.2-44-67.8-82.2-70.4-84.8-7.6-7.9-12.8-9.7-15.6-5.3-1.5 2.2-1.6 14.3-1.8 116.3l-.2 113.8h-37V284c0-107.3.1-117 1.7-122.7 4.5-16.3 12.3-24.2 28.1-28.3 8.2-2.1 22.5-2.6 32.7-1zm179.7 116.2c-.3 127.1-.1 120.6-5.7 132.3-3 6.2-11.7 13.9-18.8 16.5-9 3.4-21.4 4.6-33 3.2-11.8-1.5-18.2-3.6-23.1-7.9-2.1-1.7-19-22-37.8-45-18.7-23-34.7-42.4-35.6-43.2-.9-.7-2.4-1.1-3.2-.7-1.3.5-1.5 6.7-1.5 49.1V401h-37V296.2c0-57.9.4-105.3.9-106.1.5-.7 1.3-1.1 1.9-.7.6.3 32.1 38.3 70 84.4 37.9 46 69.8 84.5 70.9 85.4 5.4 4.9 12.1 5.4 13.8 1.1.3-1 .6-53 .5-115.6l-.1-113.7h38.2l-.4 117.2z"/></svg>